<?xml version="1.0"?>
<svg xmlns="http://www.w3.org/2000/svg" xmlns:xlink="http://www.w3.org/1999/xlink" version="1.1" id="Capa_1" x="0px" y="0px" viewBox="0 0 512 512" style="enable-background:new 0 0 512 512;" xml:space="preserve" width="512px" height="512px" class=""><g><g>
	<g>
		<path d="M30,330v137c0,24.814,20.186,45,45,45h390c24.814,0,47-20.186,47-45V330H30z M105,452c-8.284,0-15-6.716-15-15    c0-8.285,6.716-15,15-15s15,6.714,15,15C120,445.284,113.284,452,105,452z M435,452c-8.284,0-15-6.716-15-15    c0-8.285,6.716-15,15-15s15,6.714,15,15C450,445.284,443.284,452,435,452z" data-original="#000000" class="active-path" data-old_color="#000000" fill="#FFFFFF"/>
	</g>
</g><g>
	<g>
		<circle cx="30" cy="210" r="30" data-original="#000000" class="active-path" data-old_color="#000000" fill="#FFFFFF"/>
	</g>
</g><g>
	<g>
		<polygon points="223.006,62.63 163.486,78.578 250.735,148.374 310.254,132.427   " data-original="#000000" class="active-path" data-old_color="#000000" fill="#FFFFFF"/>
	</g>
</g><g>
	<g>
		<path d="M511.485,63.514l-7.766-30.149c-6.432-24.007-33.108-38.253-57.113-31.82l-92.098,25.848l87.248,69.798l59.122-15.306    C508.88,79.741,513.629,71.516,511.485,63.514z" data-original="#000000" class="active-path" data-old_color="#000000" fill="#FFFFFF"/>
	</g>
</g><g>
	<g>
		<polygon points="318.516,37.037 258.999,52.985 346.247,122.783 405.765,106.835   " data-original="#000000" class="active-path" data-old_color="#000000" fill="#FFFFFF"/>
	</g>
</g><g>
	<g>
		<polygon points="127.495,88.222 67.982,104.169 155.235,173.965 214.744,158.018   " data-original="#000000" class="active-path" data-old_color="#000000" fill="#FFFFFF"/>
	</g>
</g><g>
	<g>
		<path d="M33.334,114.888c-15.382,7.443-25.384,22.573-25.576,39.494C14.65,151.615,22.128,150,30,150    c26.869,0,49.393,17.858,57.014,42.244l32.228-8.635L33.334,114.888z" data-original="#000000" class="active-path" data-old_color="#000000" fill="#FFFFFF"/>
	</g>
</g><g>
	<g>
		<polygon points="373.028,210 313.028,300 366.969,300 426.971,210   " data-original="#000000" class="active-path" data-old_color="#000000" fill="#FFFFFF"/>
	</g>
</g><g>
	<g>
		<polygon points="283.028,210 223.028,300 276.973,300 336.973,210   " data-original="#000000" class="active-path" data-old_color="#000000" fill="#FFFFFF"/>
	</g>
</g><g>
	<g>
		<path d="M497,210h-33.974l-60.002,90H512v-75C512,216.715,505.284,210,497,210z" data-original="#000000" class="active-path" data-old_color="#000000" fill="#FFFFFF"/>
	</g>
</g><g>
	<g>
		<polygon points="193.028,210 133.028,300 186.973,300 246.973,210   " data-original="#000000" class="active-path" data-old_color="#000000" fill="#FFFFFF"/>
	</g>
</g><g>
	<g>
		<path d="M90,210c0,33.091-26.909,60-60,60v30h66.973l60-90H90z" data-original="#000000" class="active-path" data-old_color="#000000" fill="#FFFFFF"/>
	</g>
</g></g> </svg>
